<svg width="24" height="24" viewBox="0 0 24 24" fill="none" xmlns="http://www.w3.org/2000/svg"><path d="M8.65372 3.63C9.89372 3.29813 11.2114 3 12 3C12.7886 3 14.1063 3.29813 15.3463 3.63C16.6149 3.9675 17.8937 4.36687 18.6457 4.60875C18.9601 4.71096 19.2389 4.8984 19.4499 5.14954C19.661 5.40068 19.7958 5.70533 19.8389 6.0285C20.52 11.0651 18.9394 14.7979 17.0217 17.2672C16.2085 18.3236 15.2388 19.2538 14.1451 20.0269C13.767 20.2944 13.3663 20.5296 12.9474 20.73C12.6274 20.8785 12.2834 21 12 21C11.7166 21 11.3737 20.8785 11.0526 20.73C10.6337 20.5296 10.233 20.2944 9.85486 20.0269C8.76118 19.2538 7.79153 18.3236 6.97829 17.2672C5.06058 14.7979 3.48001 11.0651 4.16115 6.0285C4.20422 5.70533 4.33903 5.40068 4.55008 5.14954C4.76114 4.8984 5.03988 4.71096 5.35429 4.60875C6.44594 4.25641 7.54607 3.93007 8.65372 3.63Z" stroke="#5FCF86" stroke-width="1.5"></path><path d="M11.3333 12.6668L9.5 10.8335" stroke="#5FCF86" stroke-width="1.5" stroke-linecap="round" stroke-linejoin="round"></path><path d="M14.9997 9L11.333 12.6667" stroke="#5FCF86" stroke-width="1.5" stroke-linecap="round" stroke-linejoin="round"></path></svg>