<svg width="16" height="16" viewBox="0 0 16 16" fill="none" xmlns="http://www.w3.org/2000/svg"><path d="M12.7932 3.23242H14.1665" stroke="black" stroke-linecap="round" stroke-linejoin="round"></path><path d="M1.83325 3.23242H10.0532" stroke="black" stroke-linecap="round" stroke-linejoin="round"></path><path d="M11.4266 4.59305C12.185 4.59305 12.7999 3.98415 12.7999 3.23305C12.7999 2.48194 12.185 1.87305 11.4266 1.87305C10.6681 1.87305 10.0532 2.48194 10.0532 3.23305C10.0532 3.98415 10.6681 4.59305 11.4266 4.59305Z" stroke="black" stroke-linecap="round" stroke-linejoin="round"></path><path d="M12.7932 12.7656H14.1665" stroke="black" stroke-linecap="round" stroke-linejoin="round"></path><path d="M1.83325 12.7656H10.0532" stroke="black" stroke-linecap="round" stroke-linejoin="round"></path><path d="M11.4266 14.1263C12.185 14.1263 12.7999 13.5174 12.7999 12.7663C12.7999 12.0151 12.185 11.4062 11.4266 11.4062C10.6681 11.4062 10.0532 12.0151 10.0532 12.7663C10.0532 13.5174 10.6681 14.1263 11.4266 14.1263Z" stroke="black" stroke-linecap="round" stroke-linejoin="round"></path><path d="M5.94653 8H14.1665" stroke="black" stroke-linecap="round" stroke-linejoin="round"></path><path d="M1.83325 8H3.20658" stroke="black" stroke-linecap="round" stroke-linejoin="round"></path><path d="M4.57328 9.36063C5.33175 9.36063 5.94664 8.75173 5.94664 8.00063C5.94664 7.24952 5.33175 6.64062 4.57328 6.64062C3.81481 6.64062 3.19995 7.24952 3.19995 8.00063C3.19995 8.75173 3.81481 9.36063 4.57328 9.36063Z" stroke="black" stroke-linecap="round" stroke-linejoin="round"></path></svg>