<svg width="32" height="32" viewBox="0 0 32 32" fill="none" xmlns="http://www.w3.org/2000/svg"><path d="M24.3337 27.2499H7.66699C7.52892 27.2499 7.41699 27.138 7.41699 26.9999V12.4599C7.41699 12.3869 7.44888 12.3175 7.5043 12.27L14.652 6.14344L14.1639 5.574L14.652 6.14344C14.6973 6.1046 14.755 6.08325 14.8147 6.08325H24.3337C24.4717 6.08325 24.5837 6.19518 24.5837 6.33325V26.9999C24.5837 27.138 24.4717 27.2499 24.3337 27.2499Z" stroke="#5FCF86" stroke-width="1.5" stroke-linecap="round"></path><path d="M12.0001 5.33325L7.42285 9.46712" stroke="#5FCF86" stroke-width="1.5" stroke-linecap="round"></path><path d="M17.888 19.5212L16.7708 15.93C16.5378 15.1812 15.4785 15.1798 15.2436 15.928L14.1172 19.5164C13.7178 20.7889 14.6682 22.0833 16.0019 22.0833C17.3335 22.0833 18.2836 20.7927 17.888 19.5212Z" stroke="#5FCF86" stroke-width="1.5" stroke-linecap="round"></path><path d="M23.2503 3.66675V5.66675C23.2503 5.80482 23.1384 5.91675 23.0003 5.91675H14.667C14.5827 5.91675 14.5365 5.8916 14.5072 5.86702C14.4721 5.83755 14.44 5.78953 14.4245 5.72738C14.4089 5.66524 14.4147 5.60775 14.4318 5.56523C14.4461 5.52975 14.4749 5.48584 14.5493 5.44616L18.2993 3.44616C18.3356 3.42685 18.376 3.41675 18.417 3.41675H23.0003C23.1384 3.41675 23.2503 3.52868 23.2503 3.66675Z" stroke="#5FCF86" stroke-width="1.5" stroke-linecap="round"></path></svg>