<svg width="24" height="24" viewBox="0 0 24 24" fill="none" xmlns="http://www.w3.org/2000/svg"><path d="M12.25 2C6.74 2 2.25 6.49 2.25 12C2.25 17.51 6.74 22 12.25 22C17.76 22 22.25 17.51 22.25 12C22.25 6.49 17.76 2 12.25 2ZM15.84 10.59L12.32 14.11C12.17 14.26 11.98 14.33 11.79 14.33C11.6 14.33 11.4 14.26 11.26 14.11L9.5 12.35C9.2 12.06 9.2 11.58 9.5 11.29C9.79 11 10.27 11 10.56 11.29L11.79 12.52L14.78 9.53C15.07 9.24 15.54 9.24 15.84 9.53C16.13 9.82 16.13 10.3 15.84 10.59Z" fill="#12B76A"></path></svg>