<svg width="20" height="20" viewBox="0 0 20 20" fill="none" xmlns="http://www.w3.org/2000/svg"><path d="M17.7083 7.26666C17.7083 8.23333 17.3417 9.20833 16.6 9.95L15.3667 11.1833L10.0583 16.4917C10.0333 16.5167 10.025 16.525 10 16.5417C9.97501 16.525 9.96667 16.5167 9.94167 16.4917L3.40001 9.95C2.65834 9.20833 2.29167 8.24166 2.29167 7.26666C2.29167 6.29166 2.65834 5.31667 3.40001 4.575C4.88334 3.1 7.28334 3.1 8.76667 4.575L9.99167 5.80833L11.225 4.575C12.7083 3.1 15.1 3.1 16.5833 4.575C17.3417 5.31667 17.7083 6.28333 17.7083 7.26666Z" stroke="white" stroke-width="1.5" stroke-linecap="round" stroke-linejoin="round"></path></svg>