<svg width="17" height="16" viewBox="0 0 17 16" fill="none" xmlns="http://www.w3.org/2000/svg"><path d="M8.49967 1.33325C4.82634 1.33325 1.83301 4.32659 1.83301 7.99992C1.83301 11.6733 4.82634 14.6666 8.49967 14.6666C12.173 14.6666 15.1663 11.6733 15.1663 7.99992C15.1663 4.32659 12.173 1.33325 8.49967 1.33325ZM8.49967 6.05325C8.22634 6.05325 7.99967 5.83325 7.99967 5.55325C7.99967 5.27992 8.22634 5.05325 8.49967 5.05325C8.77967 5.05325 8.99967 5.27992 8.99967 5.55325C8.99967 5.83325 8.77967 6.05325 8.49967 6.05325ZM8.99967 10.3866C8.99967 10.6666 8.77301 10.8866 8.49967 10.8866C8.22634 10.8866 7.99967 10.6666 7.99967 10.3866V7.27992C7.99967 6.99992 8.22634 6.77992 8.49967 6.77992C8.77301 6.77992 8.99967 6.99992 8.99967 7.27992V10.3866Z" fill="#666666"></path></svg>