<svg width="24" height="24" viewBox="0 0 24 24" fill="none" xmlns="http://www.w3.org/2000/svg"><path d="M12.25 2C6.74 2 2.25 6.49 2.25 12C2.25 17.51 6.74 22 12.25 22C17.76 22 22.25 17.51 22.25 12C22.25 6.49 17.76 2 12.25 2ZM14.67 13.39C14.97 13.69 14.96 14.16 14.67 14.45C14.52 14.59 14.33 14.67 14.14 14.67C13.95 14.67 13.75 14.59 13.61 14.44L12.25 13.07L10.9 14.44C10.75 14.59 10.56 14.67 10.36 14.67C10.17 14.67 9.98 14.59 9.84 14.45C9.54 14.16 9.53999 13.69 9.82999 13.39L11.2 12L9.82999 10.61C9.53999 10.31 9.54 9.84 9.84 9.55C10.13 9.26 10.61 9.26 10.9 9.56L12.25 10.93L13.61 9.56C13.9 9.26 14.37 9.26 14.67 9.55C14.96 9.84 14.97 10.31 14.67 10.61L13.3 12L14.67 13.39Z" fill="#F04438"></path></svg>