<svg width="32" height="32" viewBox="0 0 32 32" fill="none" xmlns="http://www.w3.org/2000/svg"><path d="M25.9163 7.99992C25.9163 9.05846 25.0582 9.91659 23.9997 9.91659C22.9411 9.91659 22.083 9.05846 22.083 7.99992C22.083 6.94137 22.9411 6.08325 23.9997 6.08325C25.0582 6.08325 25.9163 6.94137 25.9163 7.99992Z" stroke="#5FCF86" stroke-width="1.5"></path><circle cx="23.9997" cy="23.9999" r="1.91667" stroke="#5FCF86" stroke-width="1.5"></circle><path d="M17.9163 7.99992C17.9163 9.05846 17.0582 9.91659 15.9997 9.91659C14.9411 9.91659 14.083 9.05846 14.083 7.99992C14.083 6.94137 14.9411 6.08325 15.9997 6.08325C17.0582 6.08325 17.9163 6.94137 17.9163 7.99992Z" stroke="#5FCF86" stroke-width="1.5"></path><path d="M17.9163 23.9999C17.9163 25.0585 17.0582 25.9166 15.9997 25.9166C14.9411 25.9166 14.083 25.0585 14.083 23.9999C14.083 22.9414 14.9411 22.0833 15.9997 22.0833C17.0582 22.0833 17.9163 22.9414 17.9163 23.9999Z" stroke="#5FCF86" stroke-width="1.5"></path><circle cx="7.99967" cy="7.99992" r="1.91667" stroke="#5FCF86" stroke-width="1.5"></circle><path d="M10.1025 26.6666V21.3333H7.99837C7.59559 21.3333 7.25184 21.4053 6.96712 21.5494C6.68066 21.6918 6.46278 21.894 6.31348 22.1562C6.16244 22.4166 6.08691 22.723 6.08691 23.0754C6.08691 23.4296 6.1633 23.7343 6.31608 23.9895C6.46886 24.243 6.69021 24.4374 6.98014 24.5728C7.26834 24.7083 7.6173 24.776 8.02702 24.776H9.43587V23.8697H8.20931C7.99403 23.8697 7.81521 23.8402 7.67285 23.7812C7.53049 23.7221 7.42459 23.6336 7.35514 23.5155C7.28396 23.3975 7.24837 23.2508 7.24837 23.0754C7.24837 22.8984 7.28396 22.7491 7.35514 22.6275C7.42459 22.506 7.53136 22.414 7.67546 22.3515C7.81782 22.2872 7.9975 22.2551 8.21452 22.2551H8.97493V26.6666H10.1025ZM7.22233 24.2395L5.89681 26.6666H7.1416L8.43848 24.2395H7.22233Z" fill="#5FCF86"></path><path d="M24 10.6665V15.9998M24 21.3332V15.9998M16 10.6665V21.3332M8 10.6665V15.4998C8 15.776 8.22386 15.9998 8.5 15.9998H24" stroke="#5FCF86" stroke-width="1.5" stroke-linecap="round"></path></svg>